<svg width="12" height="12" viewBox="0 0 12 12" fill="none" xmlns="http://www.w3.org/2000/svg">
<path d="M5.50872 1.40698C5.53014 1.29228 5.59101 1.18868 5.68077 1.11414C5.77053 1.03959 5.88354 0.998779 6.00022 0.998779C6.1169 0.998779 6.22991 1.03959 6.31967 1.11414C6.40943 1.18868 6.4703 1.29228 6.49172 1.40698L7.01722 4.18598C7.05454 4.38355 7.15056 4.56529 7.29274 4.70746C7.43491 4.84964 7.61665 4.94565 7.81422 4.98298L10.5932 5.50848C10.7079 5.5299 10.8115 5.59076 10.8861 5.68053C10.9606 5.77029 11.0014 5.88329 11.0014 5.99998C11.0014 6.11666 10.9606 6.22967 10.8861 6.31943C10.8115 6.40919 10.7079 6.47005 10.5932 6.49148L7.81422 7.01698C7.61665 7.0543 7.43491 7.15031 7.29274 7.29249C7.15056 7.43467 7.05454 7.6164 7.01722 7.81398L6.49172 10.593C6.4703 10.7077 6.40943 10.8113 6.31967 10.8858C6.22991 10.9604 6.1169 11.0012 6.00022 11.0012C5.88354 11.0012 5.77053 10.9604 5.68077 10.8858C5.59101 10.8113 5.53014 10.7077 5.50872 10.593L4.98322 7.81398C4.9459 7.6164 4.84988 7.43467 4.70771 7.29249C4.56553 7.15031 4.38379 7.0543 4.18622 7.01698L1.40722 6.49148C1.29252 6.47005 1.18893 6.40919 1.11438 6.31943C1.03983 6.22967 0.999023 6.11666 0.999023 5.99998C0.999023 5.88329 1.03983 5.77029 1.11438 5.68053C1.18893 5.59076 1.29252 5.5299 1.40722 5.50848L4.18622 4.98298C4.38379 4.94565 4.56553 4.84964 4.70771 4.70746C4.84988 4.56529 4.9459 4.38355 4.98322 4.18598L5.50872 1.40698Z" fill="white" stroke="#4B3425" stroke-linecap="round" stroke-linejoin="round"/>
<path d="M10 1V3Z" fill="white"/>
<path d="M10 1V3" stroke="#4B3425" stroke-linecap="round" stroke-linejoin="round"/>
<path d="M11 2.00024H9Z" fill="white"/>
<path d="M11 2.00024H9" stroke="#4B3425" stroke-linecap="round" stroke-linejoin="round"/>
<path d="M1.99951 10.9998C2.5518 10.9998 2.99951 10.552 2.99951 9.99976C2.99951 9.44747 2.5518 8.99976 1.99951 8.99976C1.44723 8.99976 0.999512 9.44747 0.999512 9.99976C0.999512 10.552 1.44723 10.9998 1.99951 10.9998Z" fill="white" stroke="#4B3425" stroke-linecap="round" stroke-linejoin="round"/>
</svg>
