<svg width="19" height="19" viewBox="0 0 19 19" fill="none" xmlns="http://www.w3.org/2000/svg">
<path d="M8.63853 2.20654C8.67213 2.02667 8.76757 1.86422 8.90834 1.74731C9.0491 1.6304 9.22632 1.56641 9.4093 1.56641C9.59228 1.56641 9.7695 1.6304 9.91027 1.74731C10.051 1.86422 10.1465 2.02667 10.1801 2.20654L11.0042 6.56458C11.0627 6.87442 11.2133 7.15941 11.4362 7.38238C11.6592 7.60534 11.9442 7.75591 12.254 7.81444L16.6121 8.63853C16.7919 8.67213 16.9544 8.76757 17.0713 8.90834C17.1882 9.0491 17.2522 9.22632 17.2522 9.4093C17.2522 9.59228 17.1882 9.7695 17.0713 9.91027C16.9544 10.051 16.7919 10.1465 16.6121 10.1801L12.254 11.0042C11.9442 11.0627 11.6592 11.2133 11.4362 11.4362C11.2133 11.6592 11.0627 11.9442 11.0042 12.254L10.1801 16.6121C10.1465 16.7919 10.051 16.9544 9.91027 17.0713C9.7695 17.1882 9.59228 17.2522 9.4093 17.2522C9.22632 17.2522 9.0491 17.1882 8.90834 17.0713C8.76757 16.9544 8.67213 16.7919 8.63853 16.6121L7.81444 12.254C7.75591 11.9442 7.60534 11.6592 7.38238 11.4362C7.15941 11.2133 6.87442 11.0627 6.56458 11.0042L2.20654 10.1801C2.02667 10.1465 1.86422 10.051 1.74731 9.91027C1.6304 9.7695 1.56641 9.59228 1.56641 9.4093C1.56641 9.22632 1.6304 9.0491 1.74731 8.90834C1.86422 8.76757 2.02667 8.67213 2.20654 8.63853L6.56458 7.81444C6.87442 7.75591 7.15941 7.60534 7.38238 7.38238C7.60534 7.15941 7.75591 6.87442 7.81444 6.56458L8.63853 2.20654Z" stroke="#9BB068" stroke-width="1.5682" stroke-linecap="round" stroke-linejoin="round"/>
<path d="M15.6821 1.56836V4.70477" stroke="#9BB068" stroke-width="1.5682" stroke-linecap="round" stroke-linejoin="round"/>
<path d="M17.2502 3.13672H14.1138" stroke="#9BB068" stroke-width="1.5682" stroke-linecap="round" stroke-linejoin="round"/>
<path d="M3.13656 17.2502C4.00266 17.2502 4.70477 16.5481 4.70477 15.682C4.70477 14.8159 4.00266 14.1138 3.13656 14.1138C2.27047 14.1138 1.56836 14.8159 1.56836 15.682C1.56836 16.5481 2.27047 17.2502 3.13656 17.2502Z" stroke="#9BB068" stroke-width="1.5682" stroke-linecap="round" stroke-linejoin="round"/>
</svg>
