<svg width="34" height="34" viewBox="0 0 34 34" fill="none" xmlns="http://www.w3.org/2000/svg">
<path d="M24.154 28.73C22.7657 30.0758 21.2498 29.8633 19.7907 29.2258C18.2465 28.5742 16.8298 28.5458 15.2007 29.2258C13.1607 30.1042 12.084 29.8492 10.8657 28.73C3.95233 21.6042 4.97233 10.7525 12.8207 10.3558C14.7332 10.455 16.0648 11.4042 17.184 11.4892C18.8557 11.1492 20.4565 10.1717 22.2415 10.2992C24.3807 10.4692 25.9957 11.3192 27.0582 12.8492C22.6382 15.4983 23.6865 21.3208 27.7382 22.95C26.9307 25.075 25.8823 27.1858 24.1398 28.7442L24.154 28.73ZM17.0423 10.2708C16.8298 7.11167 19.394 4.505 22.3407 4.25C22.7515 7.905 19.0257 10.625 17.0423 10.2708Z" fill="#926247"/>
</svg>
