<svg width="24" height="24" viewBox="0 0 24 24" fill="none" xmlns="http://www.w3.org/2000/svg">
<path d="M11.9961 6.99756V20.9929" stroke="#D5C2B9" stroke-width="1.99934" stroke-linecap="round" stroke-linejoin="round"/>
<path d="M2.99869 17.994C2.73356 17.994 2.47929 17.8887 2.29182 17.7012C2.10435 17.5138 1.99902 17.2595 1.99902 16.9944V3.99869C1.99902 3.73356 2.10435 3.47929 2.29182 3.29182C2.47929 3.10435 2.73356 2.99902 2.99869 2.99902H7.99703C9.05754 2.99902 10.0746 3.42031 10.8245 4.17021C11.5744 4.9201 11.9957 5.93718 11.9957 6.99769C11.9957 5.93718 12.417 4.9201 13.1669 4.17021C13.9168 3.42031 14.9339 2.99902 15.9944 2.99902H20.9927C21.2578 2.99902 21.5121 3.10435 21.6996 3.29182C21.8871 3.47929 21.9924 3.73356 21.9924 3.99869V16.9944C21.9924 17.2595 21.8871 17.5138 21.6996 17.7012C21.5121 17.8887 21.2578 17.994 20.9927 17.994H14.9947C14.1993 17.994 13.4365 18.31 12.8741 18.8724C12.3117 19.4348 11.9957 20.1977 11.9957 20.993C11.9957 20.1977 11.6797 19.4348 11.1173 18.8724C10.5549 18.31 9.79208 17.994 8.9967 17.994H2.99869Z" stroke="#D5C2B9" stroke-width="1.99934" stroke-linecap="round" stroke-linejoin="round"/>
</svg>
