<svg width="40" height="40" viewBox="0 0 40 40" fill="none" xmlns="http://www.w3.org/2000/svg">
<rect width="40" height="40" rx="20" fill="#4B3425"/>
<path d="M29 20C29 21.78 28.4722 23.5201 27.4832 25.0001C26.4943 26.4802 25.0887 27.6337 23.4442 28.3149C21.7996 28.9961 19.99 29.1743 18.2442 28.8271C16.4984 28.4798 14.8947 27.6226 13.636 26.364C12.3774 25.1053 11.5202 23.5016 11.1729 21.7558C10.8257 20.01 11.0039 18.2004 11.6851 16.5558C12.3663 14.9113 13.5198 13.5057 14.9999 12.5168C16.4799 11.5278 18.22 11 20 11" stroke="white" stroke-width="2" stroke-linejoin="round"/>
<path d="M21.1716 22.8284L27 17C28.1046 15.8954 28.1046 14.1046 27 13C25.8954 11.8954 24.1046 11.8954 23 13L17.1716 18.8284C16.4214 19.5786 16 20.596 16 21.6569V24H18.3431C19.404 24 20.4214 23.5786 21.1716 22.8284Z" stroke="white" stroke-width="2" stroke-linejoin="round"/>
<path d="M23 17C24.1046 18.1046 25.8954 18.1046 27 17C28.1046 15.8954 28.1046 14.1046 27 13C25.8954 11.8954 24.1046 11.8954 23 13C21.8954 14.1046 21.8954 15.8954 23 17Z" stroke="white" stroke-width="2" stroke-linejoin="round"/>
</svg>
