<svg width="32" height="32" viewBox="0 0 32 32" fill="none" xmlns="http://www.w3.org/2000/svg">
<path d="M11.3314 19.3301C12.2154 19.3301 13.0631 18.979 13.6881 18.354C14.3131 17.729 14.6642 16.8812 14.6642 15.9973C14.6642 14.1576 13.9977 13.3311 13.3311 11.998C11.902 9.14111 13.0325 6.59352 15.9974 3.99927C16.6639 7.33206 18.6636 10.5315 21.3298 12.6645C23.9961 14.7975 25.3292 17.3305 25.3292 19.9967C25.3292 21.2222 25.0878 22.4356 24.6188 23.5678C24.1499 24.7 23.4625 25.7287 22.596 26.5953C21.7294 27.4618 20.7007 28.1492 19.5685 28.6182C18.4363 29.0871 17.2228 29.3285 15.9974 29.3285C14.7719 29.3285 13.5584 29.0871 12.4262 28.6182C11.294 28.1492 10.2653 27.4618 9.39876 26.5953C8.53222 25.7287 7.84484 24.7 7.37587 23.5678C6.9069 22.4356 6.66553 21.2222 6.66553 19.9967C6.66553 18.4596 7.24277 16.9385 7.99865 15.9973C7.99865 16.8812 8.34978 17.729 8.9748 18.354C9.59982 18.979 10.4475 19.3301 11.3314 19.3301Z" stroke="#9BB068" stroke-width="2.66624" stroke-linecap="round" stroke-linejoin="round"/>
</svg>
